<?xml version="1.0" encoding="UTF-8"?>
<svg id="Layer_2" data-name="Layer 2" xmlns="http://www.w3.org/2000/svg" viewBox="0 0 41.6 41.6">
  <defs>
    <style>
      .cls-1 {
        fill: #de6104;
      }
    </style>
  </defs>
  <g id="Layer_17" data-name="Layer 17">
    <path class="cls-1" d="m20.8,0C9.3,0,0,9.3,0,20.8s9.3,20.8,20.8,20.8,20.8-9.3,20.8-20.8C41.6,9.3,32.3,0,20.8,0Zm14.2,7.7c-1.5.6-3,1.1-4.5,1.5-.9-2.7-2.5-5.1-4.5-7,3.5,1,6.6,2.9,9.1,5.5h0Zm-13.5,4c2.7,0,5.4-.3,8.1-.9.9,3,1.4,6.2,1.5,9.3h-9.6v-8.5Zm0-1.4V1.5c3.1.4,5.9,3.4,7.6,8-2.5.5-5.1.8-7.6.8Zm-1.4-8.8v8.8c-2.6,0-5.1-.3-7.6-.8,1.7-4.5,4.5-7.6,7.6-8Zm0,10.2v8.4h-9.6c0-3.2.5-6.3,1.5-9.3,2.7.6,5.4.9,8.1.9Zm-11,8.4H1.4c.1-4.1,1.6-8.1,4.2-11.3,1.6.7,3.3,1.3,5,1.8-1,3.1-1.5,6.3-1.5,9.6h0Zm0,1.4c0,3.3.6,6.5,1.5,9.6-1.7.4-3.4,1-5,1.7-2.6-3.2-4-7.2-4.2-11.3h7.7Zm1.4,0h9.6v8.4c-2.7,0-5.4.3-8.1.9-.9-3-1.4-6.1-1.5-9.3h0Zm9.6,9.8v8.8c-3.1-.4-5.9-3.4-7.6-8,2.5-.5,5.1-.8,7.6-.8Zm1.4,8.8v-8.8c2.6,0,5.1.3,7.6.8-1.7,4.5-4.5,7.6-7.6,8Zm0-10.2v-8.4h9.6c0,3.2-.5,6.3-1.5,9.3-2.7-.6-5.4-.9-8.1-.9Zm11-8.4h7.7c-.1,4.1-1.6,8.1-4.2,11.3-1.6-.7-3.3-1.3-5-1.8,1-3.1,1.5-6.3,1.5-9.6h0Zm0-1.4c0-3.3-.6-6.5-1.5-9.6,1.7-.4,3.4-1,5-1.7,2.6,3.2,4,7.2,4.2,11.3h-7.7ZM15.6,2.1c-2.1,1.9-3.6,4.3-4.5,7-1.5-.4-3.1-.9-4.5-1.5,2.5-2.7,5.6-4.6,9.1-5.5Zm-9.1,31.8c1.5-.6,3-1.1,4.5-1.5.9,2.7,2.5,5.1,4.5,7.1-3.5-1-6.6-2.9-9.1-5.5h0Zm19.4,5.5c2.1-1.9,3.6-4.4,4.5-7,1.5.4,3.1.9,4.5,1.5-2.5,2.7-5.6,4.6-9.1,5.5Z"/>
  </g>
</svg>