<?xml version="1.0" encoding="UTF-8"?>
<svg id="Layer_8" data-name="Layer 8" xmlns="http://www.w3.org/2000/svg" viewBox="0 0 490 220">
  <defs>
    <style>
      .cls-1 {
        fill: #231f20;
      }
    </style>
  </defs>
  <path class="cls-1" d="m151.3,114.9c-7.9.6-18,1.3-22.2,8.6-.3.6-3.3,5.9-1.2,9.8,1.2,2.2,3.1,2.1,11.1,6.3,4.9,2.6,6.2,3.6,7,5.2.9,1.7,2.1,5.1.6,7.5-2.2,3.5-7.6,1.3-17,4-4.2,1.2-11,3.2-12.3,8.1-.8,2.9.5,6.1,2.3,8.1,4.4,4.7,12.6,3.3,18.1,2.3,9.2-1.6,15.4-5.9,19.3-8.6,6.4-4.6,11.1-7.8,11.1-12.7,0-4.7-4.4-9-7.6-10.9-4.1-2.5-6.9-1.6-11.7-5.2-1.5-1.1-4.6-3.4-4.1-5.2.5-1.6,3.5-1.5,10-3.5,5.3-1.6,8-2.5,8.8-4.6,1-2.5-.8-5.7-2.9-7.5-1.8-1.4-4.1-2.1-9.4-1.7Z"/>
  <path class="cls-1" d="m163,106.8c2.2-3.8,9.3-.4,13.5-4.6,1.2-1.2,2.3-3.2,1.8-16.1-.6-13.7-2.1-18.2.6-20.1,2.4-1.7,6.9-.6,9.4,1.7,2.5,2.4,2.1,5.5,2.3,15,.4,15,1.7,16.7,2.9,17.3,2.4,1,4.2-2.7,10-3.5,3.5-.5,9.8,0,12.3,4,2.6,4.2.6,10.9-3.5,13.8-6.1,4.3-14.9-1.4-17.6,2.3-1.3,1.8.1,3.8,1.2,9.2.4,2.1.4,2.7.6,15.5.1,7.9-.5,15.7,0,23.6.4,5.5.9,8.8-1.2,10.4-2.1,1.6-6.2.8-8.8-1.2-2.2-1.6-4.8-5.3-3.5-23,1.3-17.5,4.8-26.9,0-30.5-1.7-1.3-4.7-1.9-6.4-2.3-5.2-1.1-6.8.2-9.4-1.2-3.5-1.9-5.8-7.4-4.1-10.4Z"/>
  <path class="cls-1" d="m378.4,112.6c4.8-.4,10.3-4.1,10.5-9.8.2-4.9-3.5-9.3-8.2-10.4-5.6-1.3-10.6,2.5-12.5,6.6-.4.9-2,4.8,0,8.6,2.1,3.9,6.7,5.2,10.1,5Z"/>
  <path class="cls-1" d="m371.4,118.3c1.6-.5,4.2-.7,5.9.7,2.1,1.7,1.2,4.5,1.7,12.8.3,4.5.4,6.8,1.2,9.6,1.2,4.2,2.4,4.5,4.7,10.5,1.7,4.3,2.6,6.5,2.6,9.6,0,1.9,0,7.7-3.8,10.3-2.5,1.7-5.5,1.2-9.5.5-3.3-.6-6.5-1.1-8.8-3.5-1.7-1.8-2.1-3.8-2.6-10.3-.7-8.8-1-13.2-.5-18.4.6-6,1.7-10.6,3.6-14.9,1.8-4.3,3.4-6,5.5-6.8Z"/>
  <path class="cls-1" d="m414.8,125.8c6.1-4.1,11.7.2,17.8-4.7,1.1-.8,3.5-2.9,3.6-5.8,0-2.8-2.2-5.2-4.3-6.3-1-.5-2.4-1-8.8-.2-5.1.6-7.7.9-10.9,2.1-3.6,1.3-7.1,2.5-10,5.8-1.8,2.1-2.6,4.1-3.6,6.5-1.4,3.5-1.8,6.4-2.1,8.9-.4,2.7-.8,6-.2,10.3.3,2.1.7,5.5,2.6,9.3,1.4,2.8,3.5,7.2,8.3,9.6,3,1.5,5.7,1.6,8.8,1.6,3.3,0,7.9.2,12.1-2.6,1-.6,6.5-4.4,5.7-8.2-.8-3.4-6.2-4.8-7.6-5.1-5.2-1.3-7.1.9-10.9-.7-3.1-1.3-5.6-4.2-6.4-7.5-1.2-5,1.9-10.4,5.9-13.1Z"/>
  <path class="cls-1" d="m483.5,136c-3.8-7.5-5.7-11.2-6.2-12.8-1.2-4.3-1.2-9.1-1.2-18.9,0-7,.4-9.5-1.7-11.4-2.5-2.3-7.3-2.8-9.7-.7-3,2.5,0,6.9-2.8,10.7-2.9,3.8-7.3,1.5-13,5.1-5.7,3.6-7.6,9.8-8.8,13.5-2.4,7.6-1,14-.2,17.5,1.2,5.3,2,8.9,5.5,11.7,4.1,3.3,10.5,4.1,15.2,2.1,4.6-2,5.8-6,8.1-5.4,2.4.6,1.3,5.2,5,8.4,2.5,2.2,6.7,3.5,10,1.9,4.5-2.2,4.5-8.7,4.5-9.8,0-3.4-1.2-5.4-4.5-11.9Zm-21.6-5.1c-.6,2.4-2.8,5.9-6.2,6.1-3.1.1-5.3-2.6-6.2-4.4-.6-1.3-.9-2.9-.8-4.5.1-2.1,0-5.1,1.5-7.9.4-.6,1.5-2.5,1.8-2.8.4-.5,1.8-2,2.6-2.3s1.6-.6,2.2-.5c.6,0,1.7.4,2.4,1,.5.5.7,1,1,1.5.3.6,1,1.9,1.1,3.2.2,1.4.2,1.8.3,2.7.2,1.7.7,6.7.3,8.1Z"/>
  <path class="cls-1" d="m266.6,160.3c-.5-5.6-4.7-6.5-7.6-13.2-1.7-3.9-1.7-8.1-1.8-16.7,0-12.3,1.7-14.7-.6-19.6-.4-.9-3.6-7.3-10.5-9.2-6.2-1.7-11.7,1.3-14.6,2.9-1.2.7-5.4,3.1-11.1,10.9-6.6,9-11.9,16.3-10.5,25.3.3,1.8,1.4,8.2,7,12.7,1.3,1,6.8,5.4,12.3,4,5-1.3,7.2-6.5,8.8-5.8,1,.5,0,2.7.6,5.8,1,5.5,6.2,8.8,8.8,10.4,3.4,2.2,9.8,6.2,14.6,3.5,3.7-2.1,5-7.2,4.7-10.9Zm-24-27.4c-1.9,5.3-9.7,12.6-15,9.5-.5-.3-4.1-1.9-4.8-6.5-.4-2.6,2-9.1,5-12.7,2.2-2.6,4.6-4.7,6.3-5.4,1.6-.6,2.9-.9,3.9-1,2-.2,3.2.5,4.4,1.6,3.1,2.8,1.8,10,.2,14.4Z"/>
  <path class="cls-1" d="m119.1,122.9c-1.4-4.4-3.2-9.9-8.8-13.2-.4-.2-7.1-4.1-14.6-1.7-6.5,2.1-9.6,7.7-14,16.1-3.4,6.5-7.9,15.2-8.2,27.6-.2,7.4-.4,17,6.4,24.2,1.4,1.4,6.3,6.6,12.9,6.3,7.7-.3,12.6-8,18.1-16.7,6.5-10.2,8.3-19.3,8.8-21.9.9-5.3,2.1-12.4-.6-20.7Zm-14.8,10.4c-.2,2.6-.4,6.1-.6,7.9s-.2,2.7-.8,4.8c-1.5,6-3.5,9.3-5.9,11.5-.6.6-3.5,3.2-5.7,2.3-2.6-1-2.6-6.2-2.6-10.3,0-5.8,1.4-10,2.1-11.9,1.5-4,4.1-10.2,7.7-11.4.2,0,2.5-1.7,4.2-.2,1.2,1.1,1.7,4.7,1.5,7.2Z"/>
  <path class="cls-1" d="m353.3,107.4c1-.7,20-13.8,17.6-27.1-1.1-6-6.3-10.1-8.8-12.1-1.7-1.3-6.6-5.1-14-5.8-5.6-.5-9.8,1-11.7,1.7-9.5,3.5-14.8,11.1-17,15-1.4,2.5-2.9,5.9-4.7,23.6-1.2,11.5-.8,12.4-1.8,25.3-1.5,19.4-3.1,26.5,1.8,33.4.8,1.2,3.4,4.9,6.4,4.6,3.6-.4,5.7-6.5,7-10.4,0,0,2.2-6.5,1.7-14.2-.2-3.1-.7-5.8-.7-5.8-.3-1.3-.4-1.8-.4-1.9.2,0,3.8,9.7,7,21.3,1.4,5.2,2.1,8.2,4.7,17.3,3.1,11.2,4.5,15.1,8.2,16.7,2.2.9,5.5,1,7.6-.6,2.8-2.1,2.4-6,1.2-19-1.6-17.5-1.8-20.5-4.1-25.3-.4-.9-2.2-3.9-5.9-9.8-7.7-12.5-9.4-14.5-8.8-17.3,1-4.5,6.4-4.2,14.6-9.8Zm-15.5-6.3c-2.6,1.4-4.7,2.5-6.8,1.8-2.5-.9-3.4-3.9-3.6-4.7-1.8-5.9,2.2-11.9,4.5-15.1,1.9-2.7,3.4-5,6.6-6.8,1-.5,7.8-4.4,13.2-1,3.2,2,4.1,5.4,4.3,6.2,1,4.2-1,7.7-1.8,9.1-1.1,1.9-2.1,2.7-16.3,10.5Z"/>
  <g>
    <path class="cls-1" d="m21.8,53.5c-.8,0-1.5-.2-1.9-.7-.4-.4-.7-1.1-.7-1.9V16.1c0-.8.2-1.5.7-1.9.4-.4,1.1-.7,1.9-.7h21.4c.7,0,1.1.2,1.5.5.3.3.5.8.5,1.4s-.2,1.1-.5,1.5c-.3.3-.8.5-1.5.5h-19.4v13.8h18.2c.7,0,1.1.2,1.5.5.3.3.5.8.5,1.4s-.2,1.1-.5,1.5c-.3.3-.8.5-1.5.5h-18.2v14.4h19.4c.7,0,1.1.2,1.5.5.3.3.5.8.5,1.4s-.2,1.1-.5,1.5c-.3.3-.8.5-1.5.5h-21.4Z"/>
    <path class="cls-1" d="m53.6,53.8c-.5,0-.9-.2-1.3-.5-.4-.3-.6-.7-.6-1.2s.2-1,.7-1.6l10.1-12.4v2.4l-9.4-11.6c-.5-.6-.7-1.2-.7-1.6,0-.5.2-.9.6-1.2.4-.3.8-.5,1.3-.5s1.1.1,1.5.3c.4.2.8.5,1.1,1l8.2,10.2h-1.6l8.3-10.2c.3-.5.7-.8,1.1-1,.4-.2.9-.3,1.4-.3s1,.2,1.4.5.6.7.6,1.2c0,.5-.2,1.1-.7,1.7l-9.4,11.4v-2.1l10.1,12.3c.5.6.7,1.1.7,1.6s-.2.9-.6,1.2c-.4.3-.8.5-1.4.5s-1-.1-1.4-.3-.8-.5-1.2-1l-8.9-11h1.7l-8.9,11c-.3.4-.7.7-1.1,1s-.9.3-1.5.3Z"/>
    <path class="cls-1" d="m87.3,64.1c-.8,0-1.3-.2-1.7-.6-.4-.4-.6-1-.6-1.7V27.9c0-.8.2-1.3.6-1.7.4-.4.9-.6,1.7-.6s1.4.2,1.8.6c.4.4.6,1,.6,1.7v5.4l-.6-.8c.6-2.1,1.8-3.9,3.7-5.1,1.8-1.3,4-1.9,6.5-1.9s4.7.6,6.5,1.7,3.3,2.8,4.3,4.9c1,2.1,1.5,4.7,1.5,7.6s-.5,5.4-1.5,7.6c-1,2.1-2.4,3.8-4.3,5-1.8,1.2-4,1.8-6.6,1.8s-4.7-.6-6.5-1.9c-1.8-1.3-3-3-3.7-5.1h.7v14.7c0,.8-.2,1.3-.6,1.7-.4.4-1,.6-1.7.6Zm10.9-13.7c1.8,0,3.3-.4,4.6-1.2,1.3-.8,2.3-2,3-3.6s1.1-3.5,1.1-5.7c0-3.4-.8-6.1-2.3-7.9-1.6-1.8-3.7-2.7-6.3-2.7s-3.2.4-4.5,1.2c-1.3.8-2.3,2-3,3.6s-1.1,3.5-1.1,5.8c0,3.4.8,6,2.4,7.8,1.6,1.8,3.7,2.7,6.3,2.7Z"/>
    <path class="cls-1" d="m128.4,54c-2.8,0-4.9-.8-6.3-2.5-1.5-1.7-2.2-4-2.2-7.1V15.5c0-.8.2-1.3.6-1.7.4-.4,1-.6,1.7-.6s1.3.2,1.7.6.6,1,.6,1.7v28.5c0,2,.4,3.6,1.2,4.6s2,1.5,3.7,1.5.7,0,.9,0c.3,0,.5,0,.8,0,.4,0,.7,0,.9.3.2.2.3.7.3,1.4s-.2,1.2-.5,1.5c-.3.3-.8.6-1.5.7-.3,0-.6,0-1,.1-.3,0-.7,0-1,0Z"/>
    <path class="cls-1" d="m149.6,54c-2.7,0-5.1-.6-7.1-1.8-2-1.2-3.5-2.8-4.6-5-1.1-2.1-1.6-4.6-1.6-7.6s.3-4.2.9-5.9,1.5-3.3,2.7-4.5c1.2-1.2,2.6-2.2,4.2-2.9,1.6-.7,3.5-1,5.5-1s5.1.6,7.1,1.8c2,1.2,3.5,2.8,4.6,5,1.1,2.1,1.6,4.7,1.6,7.6s-.3,4.1-.9,5.9-1.5,3.2-2.7,4.5-2.6,2.2-4.2,2.9-3.5,1-5.5,1Zm0-3.7c1.7,0,3.2-.4,4.5-1.2,1.3-.8,2.3-2,3-3.6s1.1-3.5,1.1-5.7c0-3.4-.8-6.1-2.3-7.9-1.6-1.8-3.7-2.7-6.3-2.7s-3.3.4-4.6,1.2-2.3,2-3,3.6-1.1,3.5-1.1,5.8c0,3.4.8,6,2.4,7.8,1.6,1.8,3.7,2.7,6.3,2.7Z"/>
    <path class="cls-1" d="m173.6,53.9c-.8,0-1.4-.2-1.8-.6-.4-.4-.6-1-.6-1.8v-23.6c0-.8.2-1.3.6-1.7.4-.4.9-.6,1.7-.6s1.3.2,1.7.6.6,1,.6,1.7v4.6h-.6c.6-2.2,1.8-3.9,3.5-5.1,1.7-1.2,3.9-1.8,6.4-1.9.6,0,1,0,1.4.4.3.3.5.8.6,1.4,0,.6-.1,1.2-.5,1.5s-.9.6-1.6.7h-.9c-2.6.3-4.6,1.2-6,2.6-1.4,1.4-2.1,3.3-2.1,5.8v13.7c0,.8-.2,1.3-.6,1.8s-1,.6-1.8.6Z"/>
    <path class="cls-1" d="m201.7,54c-1.9,0-3.6-.4-5.2-1.1-1.5-.7-2.7-1.7-3.6-3s-1.3-2.7-1.3-4.3.5-3.6,1.6-4.8c1.1-1.2,2.8-2,5.2-2.5,2.4-.5,5.8-.7,10-.7h2.6v3h-2.5c-3.1,0-5.6.1-7.3.4-1.8.3-3,.8-3.7,1.4s-1.1,1.6-1.1,2.9.5,2.8,1.6,3.8,2.6,1.5,4.5,1.5,2.9-.4,4.1-1.1c1.2-.7,2.1-1.7,2.8-2.9.7-1.2,1-2.7,1-4.3v-6.4c0-2.3-.5-4-1.4-5.1s-2.5-1.6-4.7-1.6-2.7.2-4,.5c-1.3.3-2.8.9-4.3,1.6-.5.3-1,.4-1.4.3-.4,0-.7-.3-.9-.6-.2-.3-.4-.7-.4-1,0-.4,0-.8.3-1.2s.5-.7,1-.9c1.7-.8,3.4-1.4,5-1.8s3.2-.6,4.7-.6c2.4,0,4.4.4,6,1.2,1.6.8,2.7,1.9,3.5,3.5.8,1.6,1.2,3.6,1.2,6v15.3c0,.8-.2,1.3-.5,1.8-.4.4-.9.6-1.6.6s-1.3-.2-1.7-.6c-.4-.4-.6-1-.6-1.8v-4.4h.5c-.3,1.4-.9,2.7-1.8,3.7-.9,1-1.9,1.8-3.2,2.4-1.3.6-2.7.8-4.3.8Z"/>
    <path class="cls-1" d="m227,53.9c-.8,0-1.3-.2-1.7-.6-.4-.4-.6-1-.6-1.8v-23.6c0-.8.2-1.3.6-1.7.4-.4.9-.6,1.7-.6s1.3.2,1.7.6c.4.4.6,1,.6,1.7v4.9l-.6-.7c.8-2.2,2.1-3.8,3.9-5,1.8-1.1,3.9-1.7,6.3-1.7s4.1.4,5.6,1.2c1.5.8,2.6,2,3.3,3.6.7,1.6,1.1,3.6,1.1,6.1v15.2c0,.8-.2,1.3-.6,1.8s-1,.6-1.7.6-1.4-.2-1.8-.6c-.4-.4-.6-1-.6-1.8v-14.9c0-2.6-.5-4.4-1.5-5.6-1-1.2-2.6-1.8-4.9-1.8s-4.6.8-6.1,2.3c-1.5,1.6-2.3,3.6-2.3,6.3v13.7c0,1.6-.8,2.4-2.4,2.4Z"/>
    <path class="cls-1" d="m269.4,54c-2.5,0-4.7-.6-6.5-1.8-1.9-1.2-3.3-2.8-4.3-5-1-2.1-1.5-4.6-1.5-7.6s.5-5.5,1.5-7.6,2.5-3.8,4.3-4.9c1.9-1.2,4-1.7,6.5-1.7s4.7.6,6.5,1.9c1.8,1.2,3,2.9,3.6,5h-.6V15.5c0-.8.2-1.3.6-1.7.4-.4,1-.6,1.8-.6s1.3.2,1.7.6.6,1,.6,1.7v36c0,.8-.2,1.3-.6,1.8-.4.4-1,.6-1.7.6s-1.3-.2-1.7-.6-.6-1-.6-1.8v-5.4l.6.8c-.6,2.2-1.8,3.9-3.7,5.1-1.8,1.3-4,1.9-6.5,1.9Zm1-3.7c1.7,0,3.2-.4,4.5-1.2,1.3-.8,2.3-2,3-3.6s1.1-3.5,1.1-5.7c0-3.4-.8-6.1-2.3-7.9-1.6-1.8-3.7-2.7-6.3-2.7s-3.3.4-4.6,1.2-2.3,2-3,3.6-1.1,3.5-1.1,5.8c0,3.4.8,6,2.4,7.8,1.6,1.8,3.7,2.7,6.3,2.7Z"/>
    <path class="cls-1" d="m305.2,54c-2.7,0-5.1-.6-7.1-1.8-2-1.2-3.5-2.8-4.6-5-1.1-2.1-1.6-4.6-1.6-7.6s.3-4.2.9-5.9,1.5-3.3,2.7-4.5c1.2-1.2,2.6-2.2,4.2-2.9,1.6-.7,3.5-1,5.5-1s5.1.6,7.1,1.8c2,1.2,3.5,2.8,4.6,5,1.1,2.1,1.6,4.7,1.6,7.6s-.3,4.1-.9,5.9-1.5,3.2-2.7,4.5c-1.2,1.3-2.6,2.2-4.2,2.9s-3.5,1-5.5,1Zm0-3.7c1.7,0,3.2-.4,4.5-1.2,1.3-.8,2.3-2,3-3.6s1.1-3.5,1.1-5.7c0-3.4-.8-6.1-2.3-7.9-1.6-1.8-3.7-2.7-6.3-2.7s-3.3.4-4.6,1.2-2.3,2-3,3.6-1.1,3.5-1.1,5.8c0,3.4.8,6,2.4,7.8,1.6,1.8,3.7,2.7,6.3,2.7Z"/>
  </g>
  <path class="cls-1" d="m60.2,103.2c1.3-.2,1.7,3.6,4.9,4.8,2.8,1,6.4-.5,8.4-2.7,2.8-3.1,2.8-8.2.7-11-4.4-5.8-18-1.4-20.2-.7-3.6,1.2-18.9,6.7-25.1,22.6-6.2,16.2,1.8,30.7,4.2,34.9,4.1,7.4,9.5,12.1,15.3,17.1,8.4,7.3,16,11.2,18.1,12.3,5.6,2.8,14.5,7.3,25.8,8.2,14,1.1,17.6-4.6,32-5.5,14.2-.9,20.7,3.9,31.3,6.2,38,8,72.8-29.3,76.6-24.6,2.4,3.1-11.4,20.2-29.2,30.8-9.6,5.7-25.4,15.2-43.2,11.6-15.3-3-19.8-13.3-33.4-11.6-7.9,1-9.7,4.8-18.8,8.9-18.9,8.5-38.5,4.1-44.5,2.7-4.3-1-31.6-7.6-48-33.5-1.4-2.2-26-42.3-3.5-73.9,15.3-21.5,44.6-28.1,63.3-22.6,3.9,1.1,11.7,3.6,14.6,10.3,3.4,7.8-1.6,17.5-7.7,22.6-7,5.9-18.5,8.3-22.3,4.1-3-3.4-1-10.7.7-11Z"/>
</svg>