<?xml version="1.0" encoding="UTF-8"?>
<svg id="Layer_2" data-name="Layer 2" xmlns="http://www.w3.org/2000/svg" viewBox="0 0 120.1 46">
  <defs>
    <style>
      .cls-1 {
        letter-spacing: 0em;
      }

      .cls-2 {
        letter-spacing: 0em;
      }

      .cls-3 {
        letter-spacing: 0em;
      }

      .cls-4 {
        font-family: MyriadPro-Regular, 'Myriad Pro';
        font-size: 12px;
      }

      .cls-5 {
        letter-spacing: 0em;
      }

      .cls-6 {
        letter-spacing: 0em;
      }

      .cls-7 {
        letter-spacing: 0em;
      }

      .cls-8 {
        font-family: Nunito-Black, Nunito;
        font-size: 18px;
        font-variation-settings: 'wght' 900;
        font-weight: 800;
      }

      .cls-9 {
        letter-spacing: 0em;
      }
    </style>
  </defs>
  <g id="Layer_16" data-name="Layer 16">
    <g>
      <path d="m19.6,9.6c.4,0,.6,1.2,1.6,1.6.9.3,2.1-.2,2.8-.9.9-1.1.9-2.8.2-3.8-1.5-2-6.1-.5-6.8-.2-1.2.4-6.4,2.3-8.5,7.7-2.1,5.6.6,10.5,1.4,12,1.4,2.5,3.2,4.1,5.2,5.9,2.8,2.5,5.4,3.9,6.1,4.2,1.9,1,4.9,2.5,8.7,2.8,4.7.4,5.9-1.6,10.8-1.9,4.8-.3,7,1.3,10.6,2.1,12.8,2.7,24.6-10.1,25.8-8.5.8,1.1-3.9,6.9-9.9,10.6-3.2,2-8.6,5.2-14.6,4-5.1-1-6.7-4.6-11.3-4-2.7.3-3.3,1.6-6.3,3.1-6.4,2.9-13,1.4-15,.9-1.4-.3-10.6-2.6-16.2-11.5-.5-.8-8.8-14.5-1.2-25.4C8.4,1,18.2-1.3,24.6.6c1.3.4,3.9,1.2,4.9,3.5,1.1,2.7-.5,6-2.6,7.7-2.3,2-6.2,2.9-7.5,1.4-1-1.1-.3-3.7.2-3.8Z"/>
      <text class="cls-8" transform="translate(14.3 28.9)"><tspan class="cls-2" x="0" y="0">C</tspan><tspan class="cls-6" x="12.2" y="0">o</tspan><tspan class="cls-3" x="23.4" y="0">s</tspan><tspan class="cls-7" x="32.7" y="0">ta Ri</tspan><tspan class="cls-1" x="75.5" y="0">c</tspan><tspan class="cls-6" x="84.7" y="0">a</tspan></text>
      <text class="cls-4" transform="translate(35.5 11.4)"><tspan x="0" y="0">Explo</tspan><tspan class="cls-9" x="27.7" y="0">r</tspan><tspan class="cls-5" x="31.6" y="0">ando</tspan></text>
    </g>
  </g>
</svg>